<?xml version="1.0" encoding="utf-8"?>
<!-- Generator: Adobe Illustrator 21.0.0, SVG Export Plug-In . SVG Version: 6.00 Build 0)  -->
<svg version="1.1" id="Layer_1" xmlns="http://www.w3.org/2000/svg" xmlns:xlink="http://www.w3.org/1999/xlink" x="0px" y="0px"
	 viewBox="0 0 118 81.8" style="enable-background:new 0 0 118 81.8;" xml:space="preserve">
<style type="text/css">
	.software{
		fill: none;
		animation: showSlow 3s ease-in-out forwards;
		animation-delay: 3s;
		

	}
	.rectangle{
		fill:#F4762B;
		animation: blink-and-move 3s ease-in-out forwards;
		transition: 2s;
		transform: translate(-53%, 0px);
	}
	.pgs{
		fill:#fff;
		transition: all 2s;	
	}
	.letter-p{
		animation: show 3.3s ease-in forwards;
	
	}
	.letter-g{
		animation: show 3.85s ease-in forwards;

	}
	.letter-s{
		animation: show 4.35s ease-in forwards;
	}

	.task{
		transition: 1s;
		fill:#fff;
		animation: scaleTask 0.8s ease-in-out forwards;
		animation-delay: 5s;
	}


	@keyframes show {
		0%{fill: none;
		}
		100%{fill: #000;
		}
	}
	
	@keyframes showSlow {
		0%{fill: #fff;
		}
		100%{fill: #000;
		}
	}

	@keyframes blink-and-move {
		0%{
			fill: #F4762B;
			transform: translate(-53%, 0px);
		}
		9%{
			fill: #F4762B;
		}
		10%{fill: #fff;}
		20%{fill: #F4762B;}
		30%{fill: #fff;}
		40%{fill: #F4762B;}
		50%{fill: #fff;}
		
		60%{
			fill: #F4762B;
			transform: translate(-53%, 0px);
		}
		100%{transform: translate(0px, 0px);}
	}

	@keyframes scaleTask{
		0%{ 
			fill: #f00;
			transform: scale(6) translate(-40%, -75%);
		}
		70%{ 
			transform: scale(1);
		}
		86%{ 
			transform: scale(1.05) translate(-1%, -5%);
		}
		100%{ 
			fill: #f00;
			transform: scale(1);
		}
	}

</style>
<path class="software" d="M91.8,41.4h5.8V42c-0.2,0-0.4,0-0.6,0h-4v5h3.9c0.3,0,0.5,0,0.7-0.1v0.6c-0.2,0-0.4,0-0.7,0H93v5.3h3.9
	c0.1,0,0.3,0,0.7-0.1v0.7h-5.7c0-0.2,0-0.4,0-0.6V42C91.8,41.8,91.8,41.6,91.8,41.4 M83.6,47.2h1.2c0.6,0,1.2-0.1,1.7-0.4
	c0.8-0.5,1.3-1.2,1.3-2.2c0-0.4-0.1-0.9-0.3-1.2c-0.2-0.4-0.5-0.7-0.8-0.9c-0.5-0.3-1.2-0.5-2.1-0.5h-1.1L83.6,47.2L83.6,47.2z
	 M83.6,47.7v5.1c0,0.2,0,0.4,0.1,0.6h-1.3c0-0.2,0.1-0.4,0.1-0.6V42c0-0.2,0-0.4-0.1-0.6h2.7c0.8,0,1.5,0.1,2.1,0.4
	c0.5,0.2,1,0.6,1.3,1c0.4,0.5,0.5,1.1,0.5,1.7c0,0.9-0.3,1.7-1,2.2s-1.6,0.8-2.9,0.9l4.8,5.3c0.1,0.2,0.3,0.3,0.5,0.4h-1.8
	c-0.1-0.1-0.2-0.3-0.3-0.5L83.6,47.7z M73.6,48.8h4.7l-2.4-6.2L73.6,48.8z M73.4,49.3L72,52.9c0,0.1-0.1,0.2-0.1,0.5h-0.7
	c0.1-0.2,0.2-0.3,0.2-0.5l4.1-11.1c0-0.1,0.1-0.2,0.1-0.4h1.1c0,0.1,0,0.2,0.1,0.3l4.3,11.2c0,0.1,0.1,0.3,0.3,0.5H80
	c0-0.2,0-0.3-0.1-0.5l-1.4-3.6L73.4,49.3L73.4,49.3z M64.7,42.7l-2.9,10.2c0,0.1-0.1,0.2-0.1,0.5h-1.1c0-0.2,0-0.4-0.1-0.6L57.6,42
	c0-0.2-0.1-0.3-0.2-0.5h1.2l0,0c0,0,0,0.2,0.1,0.4L61.5,52l2.9-10.1c0-0.2,0.1-0.3,0.1-0.4v-0.1h1.2v0.1c0,0.1,0,0.2,0.1,0.4l3,10.1
	l2.7-10.1c0-0.2,0.1-0.3,0.1-0.4h0.6c0,0.1-0.1,0.2-0.2,0.4l-3,11c0,0.1-0.1,0.2-0.1,0.5h-1.1c0-0.2,0-0.4-0.1-0.6L64.7,42.7z
	 M48,41.4h8.6v0.7C56.2,42,55.9,42,55.7,42h-2.9v10.7c0,0.2,0,0.4,0.1,0.6h-1.3c0-0.2,0.1-0.4,0.1-0.6V42h-3c-0.2,0-0.5,0-0.8,0.1
	L48,41.4L48,41.4z M41.1,41.4h5.7V42c-0.2,0-0.4-0.1-0.7-0.1h-3.8V47h3.3c0.2,0,0.4,0,0.6-0.1v0.6c-0.2,0-0.4-0.1-0.6-0.1h-3.3v5.3
	c0,0.2,0,0.4,0.1,0.6h-1.3c0-0.2,0.1-0.4,0.1-0.6V42C41.2,41.8,41.1,41.6,41.1,41.4z M33.9,41.9c-1.6,0-2.7,0.5-3.5,1.6
	c-0.7,1-1,2.2-1,3.8c0,1.7,0.3,3,1,4c0.8,1.1,2,1.6,3.6,1.6c1.5,0,2.7-0.5,3.5-1.5c0.7-1,1.1-2.3,1.1-4s-0.4-3-1.1-4
	c-0.4-0.5-0.9-0.9-1.5-1.2C35.4,42,34.7,41.9,33.9,41.9z M34,41.3c1.8,0,3.3,0.5,4.3,1.6c1.1,1.1,1.6,2.6,1.6,4.5
	c0,2-0.5,3.5-1.6,4.6c-1,1-2.4,1.6-4.3,1.6c-1.9,0-3.4-0.5-4.4-1.6s-1.5-2.6-1.5-4.6c0-1.9,0.5-3.3,1.6-4.4
	C30.7,41.8,32.1,41.3,34,41.3z M20,52.6l0.3-1c0.3,0.2,0.5,0.4,0.8,0.6c0.6,0.4,1.3,0.6,2.1,0.6c0.9,0,1.6-0.3,2.1-0.8
	c0.4-0.4,0.6-1,0.6-1.6c0-0.8-0.3-1.4-0.9-1.9c-0.3-0.2-1-0.5-2-1s-1.7-0.9-2.1-1.4c-0.5-0.5-0.8-1.2-0.8-1.9c0-0.6,0.2-1.1,0.5-1.6
	c0.7-0.9,1.7-1.4,3.2-1.4c0.9,0,1.7,0.2,2.6,0.6l-0.3,0.8c-0.9-0.5-1.7-0.8-2.5-0.8s-1.4,0.2-1.9,0.7c-0.4,0.4-0.6,0.9-0.6,1.4
	s0.2,1,0.5,1.4c0.4,0.4,1.1,0.8,2.1,1.3c0.7,0.3,1.2,0.6,1.5,0.8s0.6,0.4,0.8,0.6c0.6,0.6,0.9,1.3,0.9,2.1c0,0.6-0.2,1.2-0.5,1.7
	c-0.7,1.1-1.8,1.6-3.4,1.6C22,53.5,21,53.2,20,52.6z"/>
<rect x="82.2" y="12" class="rectangle" width="15.8" height="25.9"/>
<path class="pgs letter-p" d="M31.9,13c-1.5-0.7-3.1-1.1-4.8-1.1h-6.9c0.1,0.5,0.1,0.9,0.1,1.3v23.6c0,0.4,0,0.8-0.1,1.2h2.8
	c-0.1-0.4-0.1-0.8-0.1-1.2V26l3.3-0.1c3.1,0,5.4-0.8,7.1-2.3c1.5-1.3,2.2-3,2.2-5C35.3,16,34.1,14.2,31.9,13z M31.9,22.3
	c-0.6,0.9-1.4,1.6-2.4,2c-0.9,0.4-2.2,0.6-3.7,0.6h-3.1l-0.1-11.7h3.6c2,0,3.6,0.6,4.7,1.6c1.2,1.1,1.8,2.5,1.8,4.2
	C32.8,20.2,32.5,21.3,31.9,22.3z"/>
<path class="pgs letter-g" d="M58.7,24.9c0-0.3,0-0.8,0.1-1.2h-7.9l0.2,0.9h5.3v10.9c-1.8,0.9-3.6,1.4-5.4,1.4c-1.5,0-2.8-0.2-4-0.7
	c-2-0.7-3.5-2-4.4-3.8c-0.5-0.8-0.9-1.9-1.2-3.3c-0.3-1.4-0.5-2.8-0.5-4.1c0-2.1,0.3-3.8,0.8-5.5c0.4-1.4,1.1-2.6,2.2-3.7
	c1.8-1.9,4-2.8,6.8-2.8c2.4,0,4.8,0.8,7.4,2.3v-2.3c-1.4-0.6-2.7-1-3.7-1.2c-1.1-0.2-2.2-0.3-3.4-0.3c-3.7,0-6.6,0.9-8.8,2.9
	c-2.8,2.5-4.1,5.9-4.1,10.4c0,4.1,1.2,7.4,3.5,10c2.2,2.3,5,3.5,8.8,3.5c1.4,0,2.7-0.2,3.8-0.4c1.2-0.3,2.8-0.8,4.8-1.5
	c-0.2-0.4-0.3-0.9-0.3-1.4V24.9z"/>
<path class="pgs letter-s" d="M76.1,26.4c-0.5-0.5-1-1-1.7-1.4c-0.7-0.5-1.8-1.1-3.3-1.8c-2.2-1.1-3.7-2.1-4.4-2.9c-0.8-0.8-1.2-1.8-1.2-3
	c0-1.2,0.4-2.2,1.2-3.1c1-1.1,2.3-1.6,3.9-1.6c1.6,0,3.4,0.6,5.2,1.8l0.7-1.8c-1.9-0.9-3.8-1.3-5.5-1.3c-3.1,0-5.3,1-6.8,3
	c-0.8,1.1-1.2,2.3-1.2,3.6c0,1.7,0.5,3,1.7,4.1c0.9,0.9,2.4,1.9,4.5,3c2.2,1.1,3.5,1.8,4,2.3c1.3,1.1,2,2.5,2,4.1
	c0,1.4-0.5,2.6-1.4,3.6c-1.1,1.2-2.6,1.8-4.4,1.8c-1.6,0-3.2-0.5-4.4-1.4c-0.4-0.3-1-0.8-1.6-1.3l-0.7,2.2c2.2,1.3,4.3,1.9,6.9,2
	c3.3,0,5.7-1.2,7.2-3.6c0.7-1.2,1.1-2.5,1.1-3.8C78,29.3,77.4,27.8,76.1,26.4z"/>
<g class="task">
	<path d="M42.7,57.3l0.3-0.2l0.3,0.1c0.1,0,0.3,0,0.4-0.1c0.1-0.1,0.2-0.1,0.3-0.2c0.1,0,0.2-0.1,0.3-0.2
		c0.1-0.1,0.3-0.2,0.4-0.2c0.2,0,0.3-0.1,0.4-0.2c0-0.1,0.1-0.2,0.3-0.2c0.1-0.1,0.3-0.1,0.4-0.1l1.2-0.4c0.1,0,0.1,0.1,0.2,0.1H47
		c0.1,0,0.2-0.1,0.3-0.2c0.1-0.1,0.2-0.1,0.4-0.2c0.2-0.1,0.4-0.1,0.5-0.2l0.1,0.1c0.2-0.2,0.3-0.3,0.4-0.3h0.1l0.3,0.1
		c0.2-0.1,0.4-0.1,0.6-0.1l0.3-0.1c0.1,0,0.1,0,0.1,0.1c0.1-0.1,0.2-0.1,0.3-0.2h0.2l0.6-0.2l0.2,0.1c0.2-0.1,0.3-0.2,0.5-0.2h0.1
		l0.2,0.1c0.1,0,0.2-0.1,0.3-0.1c0.4-0.1,0.7-0.1,1.1-0.1l0.4,0.1c0.1-0.1,0.3-0.1,0.4-0.2l0.4,0.1l0.2-0.1h0.1
		c0.1,0,0.1,0.1,0.2,0.1h-0.1l1-0.2l0.1,0.1c0.1-0.1,0.1-0.1,0.2-0.1l0.3,0.1c0.1,0,0.3-0.1,0.4-0.2l0.1,0.1l0.9-0.1l0.4,0.1
		l0.3-0.1c0.3,0,0.5,0.1,0.7,0.3c0.1,0.1,0.2,0.3,0.2,0.5l0.1,0.4l-0.1,0.2L59,55.9c0,0.1-0.1,0.2-0.2,0.2c0,0-0.1,0-0.1,0.1
		c-0.1,0-0.2,0.1-0.3,0.1c-0.3,0.1-0.5,0.1-0.8,0.1c-0.2,0-0.4-0.1-0.4-0.2c0-0.1-0.1-0.2-0.2-0.3l-0.6-0.3c-0.1,0-0.1-0.1-0.2-0.1
		h-0.1l-0.6,0.1l-0.2-0.1l-0.2,0.1l-1-0.1l-0.4,0.1l-0.3-0.1c-0.1,0-0.1,0-0.2,0.1c-0.2,0-0.4,0.1-0.6,0.1c-0.3,0-0.4,0.1-0.4,0.3
		c0,0.1,0,0.2,0.1,0.3c0.1,0.1,0.1,0.2,0.1,0.3c-0.1,0.1-0.2,0.2-0.2,0.4c-0.1,0.1-0.2,0.1-0.2,0.2c-0.1,0.1-0.3,0.2-0.5,0.4
		c-0.2,0.1-0.4,0.3-0.5,0.5c-0.1,0.2-0.2,0.2-0.3,0.3c-0.1,0.1-0.3,0.3-0.4,0.4l-0.1,0.1c0,0.1-0.1,0.1,0,0.1c0,0.1-0.1,0.1-0.1,0.2
		l-0.1,0.3c-0.2,0.2-0.4,0.5-0.6,0.7l-0.2,0.1l-0.2,0.2h-0.2c-0.1,0-0.1,0.1-0.1,0.2L49,61c-0.1,0.1-0.2,0.3-0.3,0.5l-0.2,0.3
		c-0.1,0.1-0.2,0.2-0.3,0.3c-0.1,0.2-0.1,0.4-0.3,0.6v0.2c0,0.2-0.3,0.6-0.9,1.4C47,64.4,47,64.6,47,64.9c-0.3,0.5-0.5,0.8-0.6,0.8
		c0,0.3-0.1,0.6-0.2,0.8c-0.1,0.3-0.3,0.7-0.4,1c-0.1,0.3-0.3,0.6-0.5,0.9l-0.1,0.1c-0.1,0.1-0.1,0.2-0.2,0.2
		c-0.1,0.4-0.1,0.8-0.3,1.2l-0.1,0.8l-0.3,0.8c0,0-0.1,0.1-0.1,0.2c0,0.1,0,0.1,0.1,0.2c0.1,0.2,0.1,0.4,0,0.6
		c0,0.1-0.1,0.2-0.1,0.3c0,0.3-0.2,0.5-0.5,0.6h-0.1l-0.3,0.1c-0.4,0-0.8-0.2-1-0.6c-0.3-0.4-0.5-1-0.5-1.5c0-0.1,0-0.3,0.1-0.4
		c0.1-0.3,0.1-0.4,0.1-0.5s0.1-0.2,0.1-0.2c0-0.1,0.1-0.2,0.1-0.3c0-0.4,0.1-0.8,0.3-1.1c0.2-0.2,0.3-0.5,0.5-0.7
		c0-0.1,0-0.1,0.1-0.1c-0.1-0.1-0.1-0.2-0.1-0.4c0-0.3,0.1-0.5,0.4-0.6c0-0.1,0.1-0.2,0.1-0.3c0.1-0.2,0.2-0.4,0.3-0.7
		c0.1-0.3,0.3-0.5,0.6-0.7c0-0.1,0.1-0.1,0.2-0.2l-0.1-0.5c0.1-0.1,0.1-0.3,0.3-0.4l0.3-0.4c0.1-0.2,0.2-0.3,0.4-0.4
		c0.1-0.1,0.1-0.2,0.2-0.2c0-0.1,0.1-0.2,0.1-0.4c0.1-0.3,0.2-0.5,0.4-0.7c0.2-0.3,0.4-0.6,0.6-0.9c0.2-0.3,0.4-0.5,0.6-0.5
		c0.1,0,0.2-0.1,0.3-0.2c0,0,0,0,0,0l0,0l0.1-0.5c0.2-0.1,0.3-0.3,0.5-0.5l0.2-0.2c0-0.1,0.1-0.2,0.2-0.3c0.1-0.1,0.2-0.1,0.2-0.3
		c0.1-0.1,0.2-0.3,0.4-0.4c0.1-0.4,0.4-0.8,0.8-1l0.2-0.2c0.1-0.2,0.3-0.3,0.4-0.5c0.1-0.1,0.2-0.2,0.2-0.3c0-0.1,0.2-0.3,0.3-0.3
		c0.2-0.1,0.2-0.2,0.2-0.2c0-0.1-0.1-0.1-0.1-0.1c-0.1,0-0.2,0-0.4,0.1h-0.1l-0.3,0.1h-0.1l-0.3-0.1c-0.1,0.1-0.3,0.1-0.4,0.1
		l-0.2,0.2h-0.3l-0.1,0.1l-0.1,0.1l-0.4-0.1c-0.2,0-0.3,0.1-0.4,0.2c-0.1,0.1-0.3,0.1-0.5,0.1c-0.3,0.1-0.6,0.1-0.8,0.3
		c-0.1,0.1-0.3,0.2-0.5,0.2l-0.3-0.1l0,0c-0.1,0-0.2,0-0.3,0.2c-0.1,0.1-0.3,0.2-0.4,0.2h-0.1c-0.2,0-0.4,0.1-0.6,0.2
		c-0.1,0.1-0.3,0.1-0.4,0.2l-0.3-0.1c-0.1,0.1-0.2,0.1-0.3,0.2c-0.1,0.1-0.2,0.1-0.2,0.2c-0.1,0.1-0.2,0.1-0.2,0.2
		c-0.1,0.1-0.2,0.1-0.3,0.2c-0.1,0.1-0.1,0.1-0.2,0.1h-0.1L43,58.6c-0.1,0-0.2,0.1-0.3,0.2c-0.1,0.1-0.1,0.2-0.3,0.2
		c-0.1,0-0.2,0.1-0.3,0.2c-0.1,0.1-0.2,0.1-0.3,0.1c-0.1,0.1-0.2,0.2-0.2,0.3c-0.1,0.1-0.2,0.3-0.3,0.4l-0.3,0.3l-0.1,0.1
		c-0.5,0-0.7-0.3-0.7-0.8l0.3-0.6c0.1-0.4,0.5-0.7,0.9-0.8c0.3-0.1,0.5-0.2,0.8-0.3L42.7,57.3z"/>
	<path class="st3" d="M77.5,68.2c-0.2,0-0.4,0.2-0.6,0.4l-0.1,0.1c-0.2,0.1-0.3,0.2-0.4,0.3c-0.1,0.1-0.3,0.3-0.5,0.4
		c0,0.2-0.1,0.3-0.2,0.3h-0.2c-0.1,0-0.2,0.1-0.3,0.3c-0.1,0.2-0.3,0.3-0.5,0.4c-0.2,0.1-0.3,0.2-0.4,0.3c0,0.1-0.1,0.2-0.3,0.2
		l-0.2,0.1c-0.1,0.1-0.2,0.2-0.4,0.2c-0.1,0-0.2,0.1-0.3,0.1c-0.1,0-0.2-0.1-0.4-0.1c-0.2-0.1-0.3-0.1-0.4-0.3
		c-0.1-0.1-0.2-0.3-0.3-0.4c-0.1-0.2-0.1-0.3-0.3-0.4c-0.1-0.1-0.2-0.2-0.2-0.3c0-0.1,0.2-0.3,0.5-0.4c0.2-0.1,0.5-0.2,0.7-0.4
		c0.1-0.1,0.2-0.2,0.3-0.2c0.1-0.1,0.2-0.1,0.3-0.2l0.8-0.7l0.1-0.3c0.2-0.2,0.2-0.2,0.2-0.3l-0.1-0.3c0.1-0.2,0.2-0.3,0.2-0.4
		c0-0.6-0.1-0.9-0.4-1l-0.5-0.3L73,65c-0.2,0.1-0.5,0.1-0.7,0.3c-0.3,0.1-0.6,0.4-0.7,0.7l-0.2-0.1c-0.1,0-0.2,0.1-0.3,0.2L71,66.3
		l-0.2,0.2l-0.4,0.4L70.1,67l0.1,0.3l-0.1,0.1l-0.2-0.1c0,0,0,0.1,0,0.1c0,0,0,0,0,0c-0.2,0.2-0.4,0.4-0.6,0.6l-0.4,0.4l-0.3,0.4
		c-0.1,0.1-0.2,0.3-0.2,0.4h0.1c-0.2,0.1-0.3,0.2-0.5,0.3l-0.1,0.2l-0.1-0.1v-0.3c0-0.1,0-0.2,0.1-0.2l0.2-0.1v-0.3l0.2-0.3
		c0-0.1,0-0.3,0.1-0.4c0-0.1,0.1-0.1,0.3-0.2l0.1-0.2c0.1-0.2,0.2-0.4,0.3-0.7c0.1-0.3,0.2-0.6,0.4-0.8l0.6-0.8
		c0.1-0.1,0.2-0.3,0.3-0.5c0.2-0.1,0.4-0.3,0.5-0.5c0.1-0.2,0.2-0.4,0.4-0.5c0.2-0.1,0.2-0.4,0.3-0.6c0.1,0,0.2-0.1,0.3-0.2l0.1-0.1
		c0.2-0.2,0.4-0.5,0.5-0.7l0.2-0.4c0.2-0.3,0.3-0.4,0.3-0.4l0.6-1.5c0-0.1,0.1-0.2,0.2-0.3c0-0.1,0-0.1-0.1-0.1l0.1-1.2v-0.3
		c0-0.1,0-0.2-0.1-0.3c-0.1-0.1-0.1-0.3-0.2-0.4c0-0.2-0.2-0.3-0.4-0.3c-0.3,0-0.5,0.1-0.7,0.4c-0.3,0.3-0.5,0.6-0.6,0.9l-0.1,0.1
		c-0.1,0.1-0.1,0.1-0.1,0.2l-0.1,0.1c-0.1,0.1-0.2,0.2-0.2,0.3L71,59c0,0,0,0.1,0.1,0.1c-0.1,0.1-0.2,0.1-0.4,0.2
		c-0.2,0.4-0.3,0.7-0.4,0.9L70,60.7c0,0.2-0.1,0.4-0.2,0.5c-0.1,0.2-0.2,0.3-0.3,0.5c-0.1,0.1-0.2,0.3-0.2,0.5l-0.2,0.2
		c-0.2,0.5-0.4,1-0.6,1.5l-0.2,0.2c-0.2,0.5-0.4,0.9-0.7,1.4c-0.1,0.1-0.2,0.3-0.4,0.4l-1.4,1.8c-0.1,0-0.2,0.1-0.3,0.3
		c0,0.1-0.1,0.1-0.2,0.2l-0.1,0.2l-0.1,0.1c-0.1,0-0.2,0.1-0.2,0.2c-0.1,0.1-0.2,0.2-0.2,0.3L64.5,69c-0.1,0.1-0.3,0.3-0.4,0.4
		c-0.1,0-0.2,0.1-0.3,0.2c-0.2,0.2-0.5,0.4-0.8,0.5c0,0-0.1-0.1-0.1-0.2c0.1-0.1,0.1-0.3,0.2-0.4v-0.3l0.1-0.5v-0.6
		c0.1-0.1,0.1-0.2,0.1-0.3c-0.1-0.2-0.1-0.3-0.1-0.4c-0.1-0.1-0.1-0.3-0.1-0.4c-0.1-0.5-0.2-0.9-0.3-1.4c-0.1-0.5-0.3-0.9-0.7-1.2
		c-0.2-0.1-0.3-0.2-0.5-0.2c-0.2,0-0.4,0.1-0.5,0.2c-0.2,0.2-0.3,0.4-0.4,0.7c-0.1,0.2-0.1,0.5-0.3,0.7c-0.1,0.1-0.2,0.1-0.2,0.3
		L60,66.4c-0.1,0.2-0.3,0.4-0.6,0.6c-0.2,0.2-0.4,0.4-0.7,0.6L58.2,68l-0.1,0.1l-0.1-0.1c0-0.1-0.1-0.1-0.2-0.2
		c-0.2,0-0.3,0.1-0.5,0.3c-0.1,0.2-0.3,0.4-0.5,0.5c-0.1,0-0.3,0.2-0.3,0.3c0,0.1-0.1,0.2-0.3,0.2l-0.2,0.2
		c-0.1,0.1-0.2,0.2-0.3,0.4l-0.2,0.1c-0.1,0.1-0.2,0.1-0.3,0.3c-0.2,0.2-0.4,0.3-0.6,0.4c-0.1-0.1-0.1-0.2-0.1-0.4l0.1-0.4l-0.1-0.4
		c0-0.1,0-0.2,0.1-0.3c0.1-0.1,0.1-0.1,0.1-0.2l0,0l0.2-0.6c0-0.1,0.1-0.2,0.1-0.3c0.5-0.4,0.8-1.1,0.8-1.7c0-0.5-0.2-0.7-0.6-0.7
		c-0.4,0-0.8,0.2-1.1,0.5c-0.2,0.4-0.3,0.5-0.4,0.5S54,66.6,54,66.5c-0.1-0.8-0.4-1.2-0.9-1.2c-0.1,0-0.1,0-0.2,0.1l-0.2,0.1l0,0
		c-0.1-0.1-0.2-0.1-0.3-0.1h-0.3c-0.2,0.1-0.5,0.3-0.7,0.4h-0.1c-0.2,0-0.3,0.1-0.5,0.2l-0.6,0.3c-0.2,0.1-0.4,0.2-0.6,0.4
		c-0.1,0.1-0.2,0.2-0.4,0.3c-0.4,0.2-0.7,0.5-1,0.8l-0.4,0.4c-0.2,0.1-0.3,0.2-0.5,0.4c-0.1,0.1-0.2,0.3-0.3,0.4
		c-0.1,0.1-0.2,0.2-0.2,0.4l-0.2,0.2c-0.1,0.1-0.2,0.3-0.3,0.4c-0.1,0.2-0.2,0.3-0.3,0.4v0.4c-0.2,0-0.3,0.1-0.3,0.2v0.6
		c0,0.1-0.1,0.2,0,0.2c0,0.2,0,0.3,0.1,0.5l0.2,0.6c0.1,0.2,0.2,0.4,0.5,0.5c0.3,0.1,0.6,0.2,0.9,0.2c0.6-0.1,1.1-0.4,1.6-0.7
		l0.1-0.1c0.2-0.1,0.3-0.2,0.5-0.3l1-0.8c0.1-0.1,0.3-0.2,0.3-0.4c0.1-0.1,0.1-0.2,0.2-0.3l0.3,0.1l0.2-0.2c0.1-0.1,0.1-0.2,0.3-0.2
		c0.1-0.1,0.2-0.1,0.2-0.2l0.1-0.1c0.1-0.1,0.2-0.1,0.3-0.3c0-0.2,0.1-0.3,0.2-0.4c0.1,0,0.2-0.1,0.3-0.2c0.1-0.1,0.2-0.2,0.2-0.2
		s0.1,0.1,0.1,0.1l-0.1,0.7c0,0.1,0,0.1,0.1,0.2c0,0.1,0,0.1,0.1,0.2c0,0.1,0,0.1-0.1,0.1s-0.1,0.1-0.1,0.1s0.1,0.1,0.1,0.2
		s0.1,0.1,0.1,0.2L53,70.9c0,0.1,0,0.3,0.1,0.4c0.1,0.1,0.1,0.2,0.2,0.3c0,0.1,0.1,0.1,0.1,0.2c0.2,0,0.3,0.1,0.5,0.2
		c0.1,0.1,0.3,0.1,0.5,0.1c0.1,0,0.2-0.1,0.2-0.1c0.1,0,0.3-0.1,0.4-0.2c0.2,0,0.3-0.1,0.4-0.2l0.1-0.2c0.1-0.1,0.2-0.1,0.3-0.1
		c0.1-0.1,0.2-0.2,0.4-0.3c0.2-0.1,0.3-0.1,0.3-0.3c0.1-0.2,0.2-0.3,0.4-0.3l0.2-0.2c0.1-0.1,0.2-0.2,0.3-0.3c0-0.1,0.1-0.2,0.3-0.2
		l0.1-0.2v-0.1l0.5-0.4l0.9-0.7c0.1-0.1,0.2-0.1,0.2-0.2c0.1-0.1,0.2-0.3,0.4-0.3c0.2-0.1,0.3-0.2,0.4-0.3c0.2-0.2,0.3-0.4,0.5-0.6
		c0.3-0.3,0.5-0.4,0.5-0.4s0.1,0.1,0.1,0.3c0,0.1,0.1,0.2,0.1,0.3l-0.1,0.4c0,0.1,0.1,0.2,0.1,0.2l-0.1,0.1l0.1,0.3L61,68.3
		c0,0.1,0,0.2,0.1,0.2l0.1,0.1c0,0.1,0,0.1-0.1,0.2c0,0,0,0,0,0c-0.1,0-0.1,0-0.2,0.1c0,0,0,0,0,0v0.2c-0.1,0.1-0.1,0.2-0.1,0.3v0.2
		l-0.5,0.6l-0.2,0.5c-0.1,0.2-0.1,0.2-0.2,0.2h-0.1l-0.1,0.1c-0.2,0.2-0.4,0.3-0.7,0.3c-0.1,0-0.1,0-0.2-0.1l-0.2,0.1
		c-0.1,0-0.1,0-0.1-0.1c-0.2-0.2-0.3-0.3-0.4-0.3c-0.1,0-0.2,0-0.3,0.1C58,71,58,71,57.9,71.1c-0.4,0.1-0.7,0.2-0.8,0.4
		c-0.1,0.1-0.1,0.3-0.3,0.4c-0.1,0.1-0.1,0.1-0.2,0.2c0,0.1,0.1,0.2,0.2,0.3c0.1,0.2,0.3,0.3,0.4,0.5c0.1,0.2,0.3,0.3,0.5,0.5
		c0.3,0.1,0.7,0.2,1.1,0.2c0.2,0,0.5-0.1,0.7-0.3C59.6,73,59.8,73,60,73h0.2c0.1-0.1,0.3-0.3,0.5-0.3l0.2-0.2
		c0.1-0.1,0.3-0.2,0.5-0.3c0.1,0,0.2-0.1,0.3-0.2l0.1-0.2l0.3-0.1c0.2-0.1,0.4-0.2,0.6-0.3l0.1-0.1c0.1,0,0.1-0.1,0.2-0.1
		c0.1-0.1,0.2-0.2,0.4-0.3l0.2-0.3l0.3-0.1c0.1-0.2,0.3-0.4,0.5-0.5c0.1,0,0.2-0.1,0.3-0.2c0,0,0-0.1,0.1-0.2
		c0.2-0.1,0.4-0.1,0.4-0.1l0.2-0.2l0.3-0.2c0.3-0.4,0.4-0.6,0.5-0.6c0.1,0,0.2-0.1,0.2-0.1V69c0,0.2-0.1,0.3-0.2,0.5
		c-0.2,0.2-0.3,0.5-0.4,0.8L65.1,71c-0.1,0.4-0.2,0.8-0.2,1.1c0,0.1,0.1,0.2,0.3,0.3c0.1,0.1,0.3,0.2,0.4,0.2c0.1,0,0.1,0,0.2-0.1
		c0.1-0.1,0.2-0.1,0.2-0.2l0.2-0.2c0.1-0.1,0.2-0.2,0.3-0.3c0.1-0.1,0.2-0.2,0.3-0.3c0-0.1,0.1-0.2,0.2-0.3c0.1-0.1,0.2-0.2,0.2-0.2
		c0.1-0.1,0.2-0.3,0.2-0.4h0.1c0.1,0,0.2-0.1,0.2-0.3c0.1-0.2,0.1-0.3,0.2-0.3c0.1-0.2,0.2-0.3,0.3-0.5c0.1,0,0.2-0.1,0.2-0.1
		c0.1-0.1,0.1-0.2,0.2-0.2l0.1-0.1c0.1-0.2,0.3-0.3,0.5-0.4l0.1-0.3c0.1,0,0.3-0.1,0.5-0.4l0.1-0.2l0.2-0.1H70
		c0.1,0,0.2-0.1,0.2-0.2c0.1-0.2,0.1-0.2,0.2-0.2l0.3,0.1c0.1,0,0.2-0.1,0.3-0.3c0.1-0.1,0.2-0.2,0.4-0.3c0.2-0.2,0.3-0.3,0.6-0.4
		c0.1,0,0.2,0.1,0.2,0.1c0,0.6-0.2,0.9-0.5,1c-0.2,0.1-0.4,0.1-0.6,0.3c-0.1,0.1-0.2,0.2-0.3,0.2c-0.1,0.1-0.3,0.2-0.4,0.3h0.2
		c-0.1,0-0.2,0.1-0.3,0.2c0,0.1-0.1,0.2-0.2,0.2s-0.2,0.1-0.2,0.2l-0.2,0.1c-0.1,0.1-0.1,0.3-0.2,0.4c0,0.2,0.2,0.4,0.4,0.4l0.1,0.2
		c0.2,0.5,0.4,1,0.7,1.4l0.2,0.2c0.2,0.3,0.3,0.5,0.4,0.5c0.1,0.1,0.2,0.1,0.3,0.2c0.3,0.1,0.5,0.1,0.7,0.2c0.1,0,0.2-0.1,0.3-0.1
		c0.1-0.1,0.2-0.1,0.4-0.1c0.1,0,0.2-0.1,0.3-0.2c0-0.1,0-0.1,0.1-0.1l0.2,0.1h0.1c0.1,0,0.1-0.1,0.2-0.1L74,72
		c0.1-0.1,0.3-0.2,0.4-0.2c0.1,0,0.2-0.1,0.2-0.3c0.1-0.1,0.1-0.2,0.3-0.3c0.1,0,0.2-0.1,0.3-0.2l0.2-0.2c0.1-0.1,0.1-0.1,0.1-0.1
		l0.1-0.1l0.2-0.2c0.1-0.1,0.2-0.2,0.3-0.2c0.1,0,0.2-0.1,0.3-0.2c0.1-0.1,0.1-0.2,0.2-0.2c0.1,0,0.1-0.1,0.2-0.1
		c0.1-0.1,0.1-0.1,0.2-0.1h0.1l0.2,0.1c0.1-0.1,0.1-0.3,0.2-0.4c0.1-0.2,0.2-0.3,0.2-0.5c0-0.2,0-0.4,0.1-0.6
		C77.7,68.2,77.6,68.1,77.5,68.2z M53,68c-0.2,0.3-0.5,0.5-0.7,0.7c-0.1,0.1-0.2,0.2-0.3,0.3c-0.2,0.1-0.3,0.3-0.4,0.5
		c-0.1,0-0.2,0.1-0.3,0.2c-0.1,0.1-0.2,0.2-0.4,0.2l-0.3,0.3l-0.8,0.4c-0.1,0.1-0.1,0.2-0.3,0.3c-0.1,0.1-0.2,0.1-0.3,0.2
		C49.3,71,49.3,71,49.2,71c0,0-0.1,0-0.1,0.1l-0.3,0.2c-0.1,0-0.2,0-0.2,0.1c-0.1,0.1-0.3,0.2-0.4,0.2l-0.5,0.2
		c-0.2,0-0.3-0.2-0.3-0.7c0-0.1,0.1-0.2,0.2-0.3c0.1-0.1,0.2-0.3,0.2-0.4c0-0.1,0.1-0.3,0.2-0.3c0.1,0,0.2-0.1,0.3-0.2l0.1-0.2
		c0-0.1,0.1-0.2,0.4-0.3c0-0.2,0.2-0.4,0.4-0.5c0.2-0.1,0.4-0.3,0.6-0.6c0.2-0.1,0.4-0.1,0.5-0.3c0.2-0.2,0.5-0.3,0.8-0.4
		c0.2,0,0.4-0.1,0.6-0.2c0.1-0.1,0.2-0.1,0.4-0.1l0.3,0.1l0.2-0.1l0.2,0.1l0.3-0.1l0.3,0.1l0.1-0.1h0.1c0.1,0,0.1,0,0.1,0.1
		S53.3,67.7,53,68z"/>
</g>
</svg>
