<?xml version="1.0" encoding="utf-8"?>
<!-- Generator: Adobe Illustrator 21.0.0, SVG Export Plug-In . SVG Version: 6.00 Build 0)  -->
<svg version="1.1" id="Layer_1" xmlns="http://www.w3.org/2000/svg" xmlns:xlink="http://www.w3.org/1999/xlink" x="0px" y="0px"
	 viewBox="0 0 78.4 42.6" style="enable-background:new 0 0 78.4 42.6;" xml:space="preserve">
<style type="text/css">
	.st0{fill:none;}
	.st1{fill:#F4762B;}
</style>
<rect x="-20.1" y="-11.3" class="st0" width="118" height="65"/>
<path d="M71.7,30.1h5.8v0.6c-0.2,0-0.4,0-0.6,0h-4v5h3.9c0.3,0,0.5,0,0.7-0.1v0.6c-0.2,0-0.4,0-0.7,0h-3.9v5.3h3.9
	c0.1,0,0.3,0,0.7-0.1v0.7h-5.7c0-0.2,0-0.4,0-0.6V30.7C71.7,30.5,71.7,30.3,71.7,30.1 M63.5,35.9h1.2c0.6,0,1.2-0.1,1.7-0.4
	c0.8-0.5,1.3-1.2,1.3-2.2c0-0.4-0.1-0.9-0.3-1.2c-0.2-0.4-0.5-0.7-0.8-0.9c-0.5-0.3-1.2-0.5-2.1-0.5h-1.1L63.5,35.9L63.5,35.9z
	 M63.5,36.4v5.1c0,0.2,0,0.4,0.1,0.6h-1.3c0-0.2,0.1-0.4,0.1-0.6V30.7c0-0.2,0-0.4-0.1-0.6H65c0.8,0,1.5,0.1,2.1,0.4
	c0.5,0.2,1,0.6,1.3,1c0.4,0.5,0.5,1.1,0.5,1.7c0,0.9-0.3,1.7-1,2.2s-1.6,0.8-2.9,0.9l4.8,5.3c0.1,0.2,0.3,0.3,0.5,0.4h-1.8
	c-0.1-0.1-0.2-0.3-0.3-0.5L63.5,36.4z M53.5,37.5h4.7l-2.4-6.2L53.5,37.5z M53.3,38l-1.4,3.6c0,0.1-0.1,0.2-0.1,0.5h-0.7
	c0.1-0.2,0.2-0.3,0.2-0.5l4.1-11.1c0-0.1,0.1-0.2,0.1-0.4h1.1c0,0.1,0,0.2,0.1,0.3L61,41.6c0,0.1,0.1,0.3,0.3,0.5h-1.4
	c0-0.2,0-0.3-0.1-0.5L58.4,38L53.3,38L53.3,38z M44.6,31.4l-2.9,10.2c0,0.1-0.1,0.2-0.1,0.5h-1.1c0-0.2,0-0.4-0.1-0.6l-2.9-10.8
	c0-0.2-0.1-0.3-0.2-0.5h1.2l0,0c0,0,0,0.2,0.1,0.4l2.8,10.1l2.9-10.1c0-0.2,0.1-0.3,0.1-0.4v-0.1h1.2v0.1c0,0.1,0,0.2,0.1,0.4
	l3,10.1l2.7-10.1c0-0.2,0.1-0.3,0.1-0.4h0.6c0,0.1-0.1,0.2-0.2,0.4l-3,11c0,0.1-0.1,0.2-0.1,0.5h-1.1c0-0.2,0-0.4-0.1-0.6L44.6,31.4
	z M27.9,30.1h8.6v0.7c-0.4-0.1-0.7-0.1-0.9-0.1h-2.9v10.7c0,0.2,0,0.4,0.1,0.6h-1.3c0-0.2,0.1-0.4,0.1-0.6V30.7h-3
	c-0.2,0-0.5,0-0.8,0.1L27.9,30.1L27.9,30.1z M21,30.1h5.7v0.6c-0.2,0-0.4-0.1-0.7-0.1h-3.8v5.1h3.3c0.2,0,0.4,0,0.6-0.1v0.6
	c-0.2,0-0.4-0.1-0.6-0.1h-3.3v5.3c0,0.2,0,0.4,0.1,0.6H21c0-0.2,0.1-0.4,0.1-0.6V30.7C21.1,30.5,21,30.3,21,30.1z M13.8,30.6
	c-1.6,0-2.7,0.5-3.5,1.6c-0.7,1-1,2.2-1,3.8c0,1.7,0.3,3,1,4c0.8,1.1,2,1.6,3.6,1.6c1.5,0,2.7-0.5,3.5-1.5c0.7-1,1.1-2.3,1.1-4
	s-0.4-3-1.1-4c-0.4-0.5-0.9-0.9-1.5-1.2C15.3,30.7,14.6,30.6,13.8,30.6z M13.9,30c1.8,0,3.3,0.5,4.3,1.6c1.1,1.1,1.6,2.6,1.6,4.5
	c0,2-0.5,3.5-1.6,4.6c-1,1-2.4,1.6-4.3,1.6c-1.9,0-3.4-0.5-4.4-1.6S8,38.1,8,36.1c0-1.9,0.5-3.3,1.6-4.4C10.6,30.5,12,30,13.9,30z
	 M-0.1,41.3l0.3-1c0.3,0.2,0.5,0.4,0.8,0.6c0.6,0.4,1.3,0.6,2.1,0.6c0.9,0,1.6-0.3,2.1-0.8c0.4-0.4,0.6-1,0.6-1.6
	c0-0.8-0.3-1.4-0.9-1.9c-0.3-0.2-1-0.5-2-1s-1.7-0.9-2.1-1.4C0.3,34.3,0,33.6,0,32.9c0-0.6,0.2-1.1,0.5-1.6c0.7-0.9,1.7-1.4,3.2-1.4
	c0.9,0,1.7,0.2,2.6,0.6L6,31.3c-0.9-0.5-1.7-0.8-2.5-0.8s-1.4,0.2-1.9,0.7C1.2,31.6,1,32.1,1,32.6s0.2,1,0.5,1.4
	c0.4,0.4,1.1,0.8,2.1,1.3c0.7,0.3,1.2,0.6,1.5,0.8s0.6,0.4,0.8,0.6c0.6,0.6,0.9,1.3,0.9,2.1c0,0.6-0.2,1.2-0.5,1.7
	c-0.7,1.1-1.8,1.6-3.4,1.6C1.9,42.2,0.9,41.9-0.1,41.3z"/>
<path d="M43.6,25.3l0.7-2.2c0.6,0.5,1.2,1,1.6,1.3c1.3,0.9,2.9,1.4,4.5,1.4c1.9,0,3.4-0.6,4.5-1.8c0.9-1,1.4-2.2,1.4-3.6
	c0-1.7-0.7-3.1-2-4.2c-0.6-0.5-1.9-1.2-4.1-2.3c-2.2-1.1-3.7-2.1-4.6-3c-1.2-1.2-1.7-2.5-1.7-4.2c0-1.3,0.4-2.5,1.2-3.6
	c1.5-2,3.8-3,6.9-3c1.8,0,3.7,0.4,5.6,1.3l-0.7,1.8C55,2,53.2,1.4,51.6,1.4c-1.7,0-3,0.5-4,1.6c-0.8,0.9-1.2,1.9-1.2,3.1
	c0,1.2,0.4,2.2,1.2,3c0.8,0.8,2.3,1.8,4.5,2.9c1.5,0.7,2.6,1.3,3.3,1.8c0.7,0.4,1.2,0.9,1.7,1.4c1.3,1.4,1.9,2.9,1.9,4.7
	c0,1.3-0.4,2.6-1.1,3.8c-1.5,2.4-4,3.6-7.3,3.6C48,27.2,45.8,26.6,43.6,25.3 M3.1,13.6h3.1c1.5,0,2.8-0.2,3.7-0.6
	c1-0.4,1.8-1.1,2.4-2c0.6-1,0.9-2.1,0.9-3.4c0-1.8-0.6-3.2-1.8-4.3c-1.2-1-2.8-1.6-4.8-1.6H3L3.1,13.6L3.1,13.6z M31.6,12.5h8
	c-0.1,0.4-0.1,0.9-0.1,1.2v10.2c0,0.5,0.1,1,0.3,1.4c-2.1,0.7-3.7,1.2-4.9,1.5c-1.2,0.2-2.5,0.4-3.9,0.4c-3.8,0-6.7-1.2-8.9-3.5
	c-2.3-2.6-3.5-5.9-3.5-10.1c0-4.5,1.4-8,4.2-10.5c2.2-2,5.2-2.9,8.9-2.9c1.2,0,2.3,0.1,3.4,0.3c1,0.2,2.3,0.6,3.7,1.2V4
	c-2.6-1.5-5.1-2.3-7.5-2.3c-2.8,0-5.1,0.9-6.9,2.8c-1.1,1.1-1.8,2.3-2.2,3.7c-0.5,1.7-0.8,3.5-0.8,5.6c0,1.4,0.2,2.8,0.5,4.2
	s0.7,2.5,1.2,3.3c1,1.8,2.5,3.1,4.5,3.8c1.3,0.5,2.6,0.7,4.1,0.7c1.9,0,3.7-0.5,5.5-1.4v-11h-5.4L31.6,12.5L31.6,12.5z M3.1,14.8
	v10.9c0,0.4,0,0.8,0.1,1.2H0.4c0.1-0.4,0.1-0.8,0.1-1.2V1.8c0-0.4,0-0.8-0.1-1.3h7c1.8,0,3.4,0.4,4.9,1.1c2.3,1.2,3.5,3.1,3.5,5.7
	c0,2.1-0.7,3.8-2.2,5.1c-1.7,1.5-4.1,2.3-7.2,2.3L3.1,14.8L3.1,14.8z"/>
<rect x="62.1" y="0.7" class="st1" width="15.8" height="25.9"/>
</svg>
